{
  "accessors": [
    {
      "bufferView": 2,
      "componentType": 5126,
      "count": 7287,
      "max": [
        0.34259998798370361,
        0.67321997880935669,
        0.52977997064590454
      ],
      "min": [
        -0.34259998798370361,
        -0.78421998023986816,
        -0.16268999874591827
      ],
      "type": "VEC3"
    },
    {
      "bufferView": 2,
      "byteOffset": 87444,
      "componentType": 5126,
      "count": 7287,
      "max": [
        1,
        0.99998807907104492,
        0.99999910593032837
      ],
      "min": [
        -1,
        -0.99992740154266357,
        -1
      ],
      "type": "VEC3"
    },
    {
      "bufferView": 3,
      "componentType": 5126,
      "count": 7287,
      "max": [
        1,
        1,
        0.99980920553207397,
        1
      ],
      "min": [
        -0.99999988079071045,
        -1,
        -0.99969363212585449,
        -1
      ],
      "type": "VEC4"
    },
    {
      "bufferView": 1,
      "componentType": 5126,
      "count": 7287,
      "max": [
        0.99703997373580933,
        0.99785000085830688
      ],
      "min": [
        0.0036599999293684959,
        0.0010199999669566751
      ],
      "type": "VEC2"
    },
    {
      "bufferView": 1,
      "byteOffset": 58296,
      "componentType": 5126,
      "count": 7287,
      "max": [
        0.99703997373580933,
        0.99785000085830688
      ],
      "min": [
        0.0036599999293684959,
        0.0010199999669566751
      ],
      "type": "VEC2"
    },
    {
      "bufferView": 1,
      "byteOffset": 116592,
      "componentType": 5126,
      "count": 7287,
      "max": [
        0.99703997373580933,
        0.99785000085830688
      ],
      "min": [
        0.0036599999293684959,
        0.0010199999669566751
      ],
      "type": "VEC2"
    },
    {
      "bufferView": 0,
      "componentType": 5125,
      "count": 35283,
      "max": [
        7286
      ],
      "min": [
        0
      ],
      "type": "SCALAR"
    },
    {
      "bufferView": 2,
      "byteOffset": 174888,
      "componentType": 5126,
      "count": 8,
      "max": [
        0.25903999805450439,
        -0.53035002946853638,
        0.33985999226570129
      ],
      "min": [
        0.24761000275611877,
        -0.54036998748779297,
        0.3117699921131134
      ],
      "type": "VEC3"
    },
    {
      "bufferView": 2,
      "byteOffset": 174984,
      "componentType": 5126,
      "count": 8,
      "max": [
        0.78916597366333008,
        0.70910763740539551,
        0.67023009061813354
      ],
      "min": [
        -0.085421279072761536,
        -0.77262735366821289,
        -0.62946021556854248
      ],
      "type": "VEC3"
    },
    {
      "bufferView": 3,
      "byteOffset": 116592,
      "componentType": 5126,
      "count": 8,
      "max": [
        0.86402255296707153,
        0.90105277299880981,
        0.47861167788505554,
        1
      ],
      "min": [
        -0.56923890113830566,
        0.28017005324363708,
        -0.55245208740234375,
        1
      ],
      "type": "VEC4"
    },
    {
      "bufferView": 1,
      "byteOffset": 174888,
      "componentType": 5126,
      "count": 8,
      "max": [
        0.39495000243186951,
        0.21769000589847565
      ],
      "min": [
        0.37356001138687134,
        0.17791999876499176
      ],
      "type": "VEC2"
    },
    {
      "bufferView": 1,
      "byteOffset": 174952,
      "componentType": 5126,
      "count": 8,
      "max": [
        0.39495000243186951,
        0.21769000589847565
      ],
      "min": [
        0.37356001138687134,
        0.17791999876499176
      ],
      "type": "VEC2"
    },
    {
      "bufferView": 1,
      "byteOffset": 175016,
      "componentType": 5126,
      "count": 8,
      "max": [
        0.39495000243186951,
        0.21769000589847565
      ],
      "min": [
        0.37356001138687134,
        0.17791999876499176
      ],
      "type": "VEC2"
    },
    {
      "bufferView": 0,
      "byteOffset": 141132,
      "componentType": 5125,
      "count": 30,
      "max": [
        7
      ],
      "min": [
        0
      ],
      "type": "SCALAR"
    }
  ],
  "asset": {
    "extras": {
      "author": "Karol Miklas (https://sketchfab.com/karolmiklas)",
      "license": "CC-BY-4.0 (http://creativecommons.org/licenses/by/4.0/)",
      "source": "https://sketchfab.com/3d-models/free-zuk-3d-model-bb4OJb5V4L0hgYjM3vtGvPB7ZMt",
      "title": "(FREE) Żuk 3D model"
    },
    "generator": "Sketchfab-9.80.0",
    "version": "2.0"
  },
  "bufferViews": [
    {
      "buffer": 0,
      "byteLength": 141252,
      "byteOffset": 0,
      "name": "floatBufferViews",
      "target": 34963
    },
    {
      "buffer": 0,
      "byteLength": 175080,
      "byteOffset": 141252,
      "byteStride": 8,
      "name": "floatBufferViews",
      "target": 34962
    },
    {
      "buffer": 0,
      "byteLength": 175080,
      "byteOffset": 316332,
      "byteStride": 12,
      "name": "floatBufferViews",
      "target": 34962
    },
    {
      "buffer": 0,
      "byteLength": 116720,
      "byteOffset": 491412,
      "byteStride": 16,
      "name": "floatBufferViews",
      "target": 34962
    }
  ],
  "buffers": [
    {
      "byteLength": 608132,
      "uri": "scene.bin"
    }
  ],
  "images": [
    {
      "uri": "textures/material_baseColor.jpeg"
    },
    {
      "uri": "textures/material_metallicRoughness.png"
    },
    {
      "uri": "textures/material_emissive.jpeg"
    },
    {
      "uri": "textures/material_normal.jpeg"
    }
  ],
  "materials": [
    {
      "doubleSided": false,
      "emissiveFactor": [
        1,
        1,
        1
      ],
      "emissiveTexture": {
        "index": 2,
        "texCoord": 0
      },
      "name": "material",
      "normalTexture": {
        "index": 3,
        "scale": 1,
        "texCoord": 0
      },
      "pbrMetallicRoughness": {
        "baseColorFactor": [
          0.67052909666867311,
          0.67052909666867311,
          0.67052909666867311,
          1
        ],
        "baseColorTexture": {
          "index": 0,
          "texCoord": 0
        },
        "metallicFactor": 0.84077394524196047,
        "metallicRoughnessTexture": {
          "index": 1,
          "texCoord": 0
        },
        "roughnessFactor": 1
      }
    }
  ],
  "meshes": [
    {
      "name": "Plane.018_0",
      "primitives": [
        {
          "attributes": {
            "NORMAL": 1,
            "POSITION": 0,
            "TANGENT": 2,
            "TEXCOORD_0": 3,
            "TEXCOORD_1": 4,
            "TEXCOORD_2": 5
          },
          "indices": 6,
          "material": 0,
          "mode": 4
        }
      ]
    },
    {
      "name": "Plane.003_0",
      "primitives": [
        {
          "attributes": {
            "NORMAL": 8,
            "POSITION": 7,
            "TANGENT": 9,
            "TEXCOORD_0": 10,
            "TEXCOORD_1": 11,
            "TEXCOORD_2": 12
          },
          "indices": 13,
          "material": 0,
          "mode": 4
        }
      ]
    }
  ],
  "nodes": [
    {
      "children": [
        1
      ],
      "name": "RootNode (gltf orientation matrix)",
      "rotation": [
        -0.70710678118654746,
        -0,
        -0,
        0.70710678118654757
      ]
    },
    {
      "children": [
        2
      ],
      "matrix": [
        1,
        0,
        0,
        0,
        0,
        1,
        0,
        0,
        0,
        0,
        1,
        0,
        0.0029368209652602673,
        0.0023524514399468899,
        -0.0032659166026860476,
        1
      ],
      "name": "RootNode (model correction matrix)"
    },
    {
      "children": [
        3,
        5,
        7,
        9,
        11,
        13,
        15,
        17,
        19
      ],
      "name": "Root"
    },
    {
      "children": [
        4
      ],
      "matrix": [
        0.92514000000000007,
        0,
        0,
        0,
        0,
        0.92514000000000007,
        0,
        0,
        0,
        0,
        0.92514000000000007,
        0,
        0,
        0,
        0,
        1
      ],
      "name": "Plane.018"
    },
    {
      "mesh": 0,
      "name": "Plane.018_0"
    },
    {
      "children": [
        6
      ],
      "matrix": [
        0.15623000000000004,
        -0.18586000000000003,
        -0.16004000000000004,
        0,
        0.20868,
        0.0010300000000000003,
        0.20252000000000001,
        0,
        -0.12886999999999998,
        -0.22365000000000002,
        0.13392000000000001,
        0,
        -0.3834800000000001,
        -0.80785000000000007,
        0.50709000000000004,
        1
      ],
      "name": "Lamp.003"
    },
    {
      "name": "Lamp.003"
    },
    {
      "children": [
        8
      ],
      "matrix": [
        0.92514000000000007,
        0,
        0,
        0,
        0,
        0.92514000000000007,
        0,
        0,
        0,
        0,
        0.92514000000000007,
        0,
        0,
        0,
        0,
        1
      ],
      "name": "Plane.003"
    },
    {
      "mesh": 1,
      "name": "Plane.003_0"
    },
    {
      "children": [
        10
      ],
      "matrix": [
        0.16747000000000004,
        -0.23332,
        0.045570000000000013,
        0,
        0.10434,
        0.022050000000000007,
        -0.27054,
        0,
        0.21361000000000002,
        0.17216000000000001,
        0.096420000000000033,
        0,
        -0.3834800000000001,
        -0.80785000000000007,
        0.50709000000000004,
        1
      ],
      "name": "Lamp.000"
    },
    {
      "name": "Lamp.000"
    },
    {
      "children": [
        12
      ],
      "matrix": [
        -0.20061000000000001,
        -0.12007000000000001,
        -0.17293000000000003,
        0,
        -0.19858000000000003,
        0.028600000000000004,
        0.21051000000000003,
        0,
        -0.069910000000000014,
        0.26331000000000004,
        -0.10172000000000002,
        0,
        -0.79929000000000006,
        0.44818000000000008,
        0.42455000000000004,
        1
      ],
      "name": "Lamp.001"
    },
    {
      "name": "Lamp.001"
    },
    {
      "children": [
        14
      ],
      "matrix": [
        0.24508000000000002,
        -0.11180000000000001,
        -0.10955000000000001,
        0,
        -0.15425000000000003,
        -0.20712,
        -0.13369,
        0,
        -0.026630000000000004,
        0.17078000000000002,
        -0.23386000000000001,
        0,
        -0.3834800000000001,
        -0.80785000000000007,
        0.50709000000000004,
        1
      ],
      "name": "Lamp.002"
    },
    {
      "name": "Lamp.002"
    },
    {
      "children": [
        16
      ],
      "matrix": [
        0.063300000000000009,
        -0.07146000000000001,
        0.27468000000000004,
        0,
        0.20849000000000004,
        0.20266999999999999,
        0.004680000000000001,
        0,
        -0.19259000000000004,
        0.19592000000000004,
        0.095350000000000018,
        0,
        -0.3834800000000001,
        -0.80785000000000007,
        0.50709000000000004,
        1
      ],
      "name": "Lamp.004"
    },
    {
      "name": "Lamp.004"
    },
    {
      "children": [
        18
      ],
      "matrix": [
        -0.20061000000000001,
        -0.12007000000000001,
        -0.17293000000000003,
        0,
        -0.19858000000000003,
        0.028600000000000004,
        0.21051000000000003,
        0,
        -0.069910000000000014,
        0.26331000000000004,
        -0.10172000000000002,
        0,
        -0.32760000000000006,
        1.2081999999999999,
        0.5678700000000001,
        1
      ],
      "name": "Lamp.005"
    },
    {
      "name": "Lamp.005"
    },
    {
      "children": [
        20
      ],
      "matrix": [
        -0.20061000000000001,
        -0.12007000000000001,
        -0.17293000000000003,
        0,
        -0.19858000000000003,
        0.028600000000000004,
        0.21051000000000003,
        0,
        -0.069910000000000014,
        0.26331000000000004,
        -0.10172000000000002,
        0,
        1.3023500000000001,
        -0.23527000000000001,
        0.62474000000000018,
        1
      ],
      "name": "Lamp.006"
    },
    {
      "name": "Lamp.006"
    }
  ],
  "samplers": [
    {
      "magFilter": 9729,
      "minFilter": 9987,
      "wrapS": 10497,
      "wrapT": 10497
    }
  ],
  "scene": 0,
  "scenes": [
    {
      "name": "OSG_Scene",
      "nodes": [
        0
      ]
    }
  ],
  "textures": [
    {
      "sampler": 0,
      "source": 0
    },
    {
      "sampler": 0,
      "source": 1
    },
    {
      "sampler": 0,
      "source": 2
    },
    {
      "sampler": 0,
      "source": 3
    }
  ]
}

