{
  "accessors": [
    {
      "bufferView": 2,
      "componentType": 5126,
      "count": 433,
      "max": [
        0.26145100593566895,
        0.23790399730205536,
        0.021578000858426094
      ],
      "min": [
        0.14251500368118286,
        0.21801799535751343,
        0.0016920400084927678
      ],
      "type": "VEC3"
    },
    {
      "bufferView": 2,
      "byteOffset": 5196,
      "componentType": 5126,
      "count": 433,
      "max": [
        0.78063279390335083,
        0.99393635988235474,
        0.99393635988235474
      ],
      "min": [
        -0.81384086608886719,
        -0.99393635988235474,
        -0.99393635988235474
      ],
      "type": "VEC3"
    },
    {
      "bufferView": 1,
      "componentType": 5126,
      "count": 433,
      "max": [
        0.87502598762512207,
        0.99979299306869507
      ],
      "min": [
        0.00020726800721604377,
        0.00020726800721604377
      ],
      "type": "VEC2"
    },
    {
      "bufferView": 0,
      "componentType": 5125,
      "count": 2004,
      "max": [
        432
      ],
      "min": [
        0
      ],
      "type": "SCALAR"
    },
    {
      "bufferView": 2,
      "byteOffset": 10392,
      "componentType": 5126,
      "count": 52,
      "max": [
        0.26380899548530579,
        0.27208000421524048,
        0.026661299169063568
      ],
      "min": [
        0.25817000865936279,
        0.18355800211429596,
        -0.003391290083527565
      ],
      "type": "VEC3"
    },
    {
      "bufferView": 2,
      "byteOffset": 11016,
      "componentType": 5126,
      "count": 52,
      "max": [
        0.99846100807189941,
        0.32147502899169922,
        0.94691848754882812
      ],
      "min": [
        -0.98540014028549194,
        -0.32147502899169922,
        -0.94691848754882812
      ],
      "type": "VEC3"
    },
    {
      "bufferView": 1,
      "byteOffset": 3464,
      "componentType": 5126,
      "count": 52,
      "max": [
        0.86577498912811279,
        0.94525599479675293
      ],
      "min": [
        0.35631999373435974,
        0.50502800941467285
      ],
      "type": "VEC2"
    },
    {
      "bufferView": 0,
      "byteOffset": 8016,
      "componentType": 5125,
      "count": 132,
      "max": [
        51
      ],
      "min": [
        0
      ],
      "type": "SCALAR"
    },
    {
      "bufferView": 2,
      "byteOffset": 11640,
      "componentType": 5126,
      "count": 2337,
      "max": [
        0.40722799301147461,
        0.050407800823450089,
        0.035584401339292526
      ],
      "min": [
        0.095284201204776764,
        -0.049132600426673889,
        -0.054556101560592651
      ],
      "type": "VEC3"
    },
    {
      "bufferView": 2,
      "byteOffset": 39684,
      "componentType": 5126,
      "count": 2337,
      "max": [
        1,
        1,
        1
      ],
      "min": [
        -1,
        -1,
        -1
      ],
      "type": "VEC3"
    },
    {
      "bufferView": 3,
      "componentType": 5126,
      "count": 2337,
      "max": [
        1,
        1,
        1,
        1
      ],
      "min": [
        -1,
        -1,
        -1,
        -1
      ],
      "type": "VEC4"
    },
    {
      "bufferView": 1,
      "byteOffset": 3880,
      "componentType": 5126,
      "count": 2337,
      "max": [
        0.99651098251342773,
        0.99453401565551758
      ],
      "min": [
        0.00045872700866311789,
        0.00045872700866311789
      ],
      "type": "VEC2"
    },
    {
      "bufferView": 0,
      "byteOffset": 8544,
      "componentType": 5125,
      "count": 9816,
      "max": [
        2336
      ],
      "min": [
        0
      ],
      "type": "SCALAR"
    },
    {
      "bufferView": 2,
      "byteOffset": 67728,
      "componentType": 5126,
      "count": 659,
      "max": [
        -0.065563000738620758,
        0.065667696297168732,
        0.037622101604938507
      ],
      "min": [
        -0.23391099274158478,
        0.038621898740530014,
        -0.014352199621498585
      ],
      "type": "VEC3"
    },
    {
      "bufferView": 2,
      "byteOffset": 75636,
      "componentType": 5126,
      "count": 659,
      "max": [
        1,
        1,
        1
      ],
      "min": [
        -1,
        -1,
        -1
      ],
      "type": "VEC3"
    },
    {
      "bufferView": 3,
      "byteOffset": 37392,
      "componentType": 5126,
      "count": 659,
      "max": [
        1,
        1,
        1,
        1
      ],
      "min": [
        -1,
        -1,
        -0.99999910593032837,
        1
      ],
      "type": "VEC4"
    },
    {
      "bufferView": 1,
      "byteOffset": 22576,
      "componentType": 5126,
      "count": 659,
      "max": [
        0.99700301885604858,
        0.99960702657699585
      ],
      "min": [
        0.0003925380005966872,
        0.0003925380005966872
      ],
      "type": "VEC2"
    },
    {
      "bufferView": 0,
      "byteOffset": 47808,
      "componentType": 5125,
      "count": 2004,
      "max": [
        658
      ],
      "min": [
        0
      ],
      "type": "SCALAR"
    },
    {
      "bufferView": 2,
      "byteOffset": 83544,
      "componentType": 5126,
      "count": 1423,
      "max": [
        0.40549200773239136,
        0.054576899856328964,
        0.044885698705911636
      ],
      "min": [
        -0.24126100540161133,
        -0.00099025398958474398,
        -0.016284000128507614
      ],
      "type": "VEC3"
    },
    {
      "bufferView": 2,
      "byteOffset": 100620,
      "componentType": 5126,
      "count": 1423,
      "max": [
        1,
        1,
        1
      ],
      "min": [
        -1,
        -1,
        -1
      ],
      "type": "VEC3"
    },
    {
      "bufferView": 3,
      "byteOffset": 47936,
      "componentType": 5126,
      "count": 1423,
      "max": [
        1,
        1,
        1,
        1
      ],
      "min": [
        -1,
        -1,
        -1,
        -1
      ],
      "type": "VEC4"
    },
    {
      "bufferView": 1,
      "byteOffset": 27848,
      "componentType": 5126,
      "count": 1423,
      "max": [
        0.99766802787780762,
        0.99560302495956421
      ],
      "min": [
        0.00039515900425612926,
        0.00039515900425612926
      ],
      "type": "VEC2"
    },
    {
      "bufferView": 0,
      "byteOffset": 55824,
      "componentType": 5125,
      "count": 4974,
      "max": [
        1422
      ],
      "min": [
        0
      ],
      "type": "SCALAR"
    },
    {
      "bufferView": 2,
      "byteOffset": 117696,
      "componentType": 5126,
      "count": 1510,
      "max": [
        1,
        0.058093901723623276,
        0.052052099257707596
      ],
      "min": [
        -0.78569900989532471,
        -0.27208000421524048,
        -0.029221799224615097
      ],
      "type": "VEC3"
    },
    {
      "bufferView": 2,
      "byteOffset": 135816,
      "componentType": 5126,
      "count": 1510,
      "max": [
        0.99989223480224609,
        1,
        1
      ],
      "min": [
        -1,
        -1,
        -1
      ],
      "type": "VEC3"
    },
    {
      "bufferView": 3,
      "byteOffset": 70704,
      "componentType": 5126,
      "count": 1510,
      "max": [
        0.9999653697013855,
        0.99999868869781494,
        1,
        1
      ],
      "min": [
        -0.99988633394241333,
        -0.99999624490737915,
        -1,
        1
      ],
      "type": "VEC4"
    },
    {
      "bufferView": 1,
      "byteOffset": 39232,
      "componentType": 5126,
      "count": 1510,
      "max": [
        0.99650800228118896,
        0.99985998868942261
      ],
      "min": [
        0.00014016599743627012,
        -0.0015226299874484539
      ],
      "type": "VEC2"
    },
    {
      "bufferView": 0,
      "byteOffset": 75720,
      "componentType": 5125,
      "count": 6231,
      "max": [
        1509
      ],
      "min": [
        0
      ],
      "type": "SCALAR"
    },
    {
      "bufferView": 2,
      "byteOffset": 153936,
      "componentType": 5126,
      "count": 2138,
      "max": [
        0.43893399834632874,
        0.068956799805164337,
        0.054556101560592651
      ],
      "min": [
        -1,
        -0.13726699352264404,
        -0.013674899935722351
      ],
      "type": "VEC3"
    },
    {
      "bufferView": 2,
      "byteOffset": 179592,
      "componentType": 5126,
      "count": 2138,
      "max": [
        1,
        1,
        1
      ],
      "min": [
        -1,
        -1,
        -1
      ],
      "type": "VEC3"
    },
    {
      "bufferView": 3,
      "byteOffset": 94864,
      "componentType": 5126,
      "count": 2138,
      "max": [
        1,
        1,
        1,
        1
      ],
      "min": [
        -1,
        -1,
        -1,
        -1
      ],
      "type": "VEC4"
    },
    {
      "bufferView": 1,
      "byteOffset": 51312,
      "componentType": 5126,
      "count": 2138,
      "max": [
        0.99547797441482544,
        0.99949800968170166
      ],
      "min": [
        0.00050160801038146019,
        0.00050160801038146019
      ],
      "type": "VEC2"
    },
    {
      "bufferView": 0,
      "byteOffset": 100644,
      "componentType": 5125,
      "count": 6936,
      "max": [
        2137
      ],
      "min": [
        0
      ],
      "type": "SCALAR"
    }
  ],
  "asset": {
    "extras": {
      "author": "Danya (https://sketchfab.com/dsamuta)",
      "license": "CC-BY-4.0 (http://creativecommons.org/licenses/by/4.0/)",
      "source": "https://sketchfab.com/3d-models/kar98k-free-model-e88c90c8e203401fa28e8f4ef03e657f",
      "title": "Kar98k Free Model"
    },
    "generator": "Sketchfab-8.25.0",
    "version": "2.0"
  },
  "bufferViews": [
    {
      "buffer": 0,
      "byteLength": 128388,
      "byteOffset": 0,
      "name": "floatBufferViews",
      "target": 34963
    },
    {
      "buffer": 0,
      "byteLength": 68416,
      "byteOffset": 128388,
      "byteStride": 8,
      "name": "floatBufferViews",
      "target": 34962
    },
    {
      "buffer": 0,
      "byteLength": 205248,
      "byteOffset": 196804,
      "byteStride": 12,
      "name": "floatBufferViews",
      "target": 34962
    },
    {
      "buffer": 0,
      "byteLength": 129072,
      "byteOffset": 402052,
      "byteStride": 16,
      "name": "floatBufferViews",
      "target": 34962
    }
  ],
  "buffers": [
    {
      "byteLength": 531124,
      "uri": "scene.bin"
    }
  ],
  "images": [
    {
      "uri": "textures/Material_baseColor.png"
    },
    {
      "uri": "textures/Material_metallicRoughness.png"
    },
    {
      "uri": "textures/Material_emissive.jpeg"
    },
    {
      "uri": "textures/Material_normal.png"
    },
    {
      "uri": "textures/Material_001_baseColor.png"
    },
    {
      "uri": "textures/Material_001_metallicRoughness.png"
    },
    {
      "uri": "textures/Material_001_emissive.jpeg"
    },
    {
      "uri": "textures/Material_001_normal.png"
    },
    {
      "uri": "textures/Material_002_baseColor.png"
    },
    {
      "uri": "textures/Material_002_metallicRoughness.png"
    },
    {
      "uri": "textures/Material_002_emissive.jpeg"
    },
    {
      "uri": "textures/Material_002_normal.png"
    },
    {
      "uri": "textures/Material_003_baseColor.png"
    },
    {
      "uri": "textures/Material_003_metallicRoughness.png"
    },
    {
      "uri": "textures/Material_003_emissive.jpeg"
    },
    {
      "uri": "textures/Material_003_normal.png"
    },
    {
      "uri": "textures/Material_005_baseColor.png"
    },
    {
      "uri": "textures/Material_005_metallicRoughness.png"
    },
    {
      "uri": "textures/Material_005_emissive.jpeg"
    },
    {
      "uri": "textures/Material_005_normal.png"
    }
  ],
  "materials": [
    {
      "alphaMode": "BLEND",
      "doubleSided": true,
      "emissiveFactor": [
        1,
        1,
        1
      ],
      "emissiveTexture": {
        "index": 2,
        "texCoord": 0
      },
      "name": "Material",
      "normalTexture": {
        "index": 3,
        "scale": 1,
        "texCoord": 0
      },
      "occlusionTexture": {
        "index": 1,
        "strength": 1,
        "texCoord": 0
      },
      "pbrMetallicRoughness": {
        "baseColorFactor": [
          1,
          1,
          1,
          1
        ],
        "baseColorTexture": {
          "index": 0,
          "texCoord": 0
        },
        "metallicFactor": 1,
        "metallicRoughnessTexture": {
          "index": 1,
          "texCoord": 0
        },
        "roughnessFactor": 1
      }
    },
    {
      "alphaMode": "BLEND",
      "doubleSided": true,
      "emissiveFactor": [
        1,
        1,
        1
      ],
      "emissiveTexture": {
        "index": 6,
        "texCoord": 0
      },
      "name": "Material_001",
      "normalTexture": {
        "index": 7,
        "scale": 1,
        "texCoord": 0
      },
      "occlusionTexture": {
        "index": 5,
        "strength": 1,
        "texCoord": 0
      },
      "pbrMetallicRoughness": {
        "baseColorFactor": [
          1,
          1,
          1,
          1
        ],
        "baseColorTexture": {
          "index": 4,
          "texCoord": 0
        },
        "metallicFactor": 1,
        "metallicRoughnessTexture": {
          "index": 5,
          "texCoord": 0
        },
        "roughnessFactor": 1
      }
    },
    {
      "alphaMode": "BLEND",
      "doubleSided": true,
      "emissiveFactor": [
        1,
        1,
        1
      ],
      "emissiveTexture": {
        "index": 10,
        "texCoord": 0
      },
      "name": "Material_002",
      "normalTexture": {
        "index": 11,
        "scale": 1,
        "texCoord": 0
      },
      "occlusionTexture": {
        "index": 9,
        "strength": 1,
        "texCoord": 0
      },
      "pbrMetallicRoughness": {
        "baseColorFactor": [
          1,
          1,
          1,
          1
        ],
        "baseColorTexture": {
          "index": 8,
          "texCoord": 0
        },
        "metallicFactor": 1,
        "metallicRoughnessTexture": {
          "index": 9,
          "texCoord": 0
        },
        "roughnessFactor": 1
      }
    },
    {
      "alphaMode": "BLEND",
      "doubleSided": true,
      "emissiveFactor": [
        1,
        1,
        1
      ],
      "emissiveTexture": {
        "index": 14,
        "texCoord": 0
      },
      "name": "Material_003",
      "normalTexture": {
        "index": 15,
        "scale": 1,
        "texCoord": 0
      },
      "occlusionTexture": {
        "index": 13,
        "strength": 1,
        "texCoord": 0
      },
      "pbrMetallicRoughness": {
        "baseColorFactor": [
          1,
          1,
          1,
          1
        ],
        "baseColorTexture": {
          "index": 12,
          "texCoord": 0
        },
        "metallicFactor": 1,
        "metallicRoughnessTexture": {
          "index": 13,
          "texCoord": 0
        },
        "roughnessFactor": 1
      }
    },
    {
      "alphaMode": "BLEND",
      "doubleSided": true,
      "emissiveFactor": [
        1,
        1,
        1
      ],
      "emissiveTexture": {
        "index": 18,
        "texCoord": 0
      },
      "name": "Material_005",
      "normalTexture": {
        "index": 19,
        "scale": 1,
        "texCoord": 0
      },
      "occlusionTexture": {
        "index": 17,
        "strength": 1,
        "texCoord": 0
      },
      "pbrMetallicRoughness": {
        "baseColorFactor": [
          1,
          1,
          1,
          1
        ],
        "baseColorTexture": {
          "index": 16,
          "texCoord": 0
        },
        "metallicFactor": 1,
        "metallicRoughnessTexture": {
          "index": 17,
          "texCoord": 0
        },
        "roughnessFactor": 1
      }
    },
    {
      "alphaMode": "BLEND",
      "doubleSided": true,
      "name": "Material_004",
      "pbrMetallicRoughness": {
        "baseColorFactor": [
          0.69893292682926833,
          0.69893292682926833,
          0.69893292682926833,
          0
        ],
        "metallicFactor": 0.28220274390243905,
        "roughnessFactor": 0.83708079268292679
      }
    }
  ],
  "meshes": [
    {
      "name": "defaultMaterial",
      "primitives": [
        {
          "attributes": {
            "NORMAL": 1,
            "POSITION": 0,
            "TEXCOORD_0": 2
          },
          "indices": 3,
          "material": 5,
          "mode": 4
        }
      ]
    },
    {
      "name": "defaultMaterial",
      "primitives": [
        {
          "attributes": {
            "NORMAL": 5,
            "POSITION": 4,
            "TEXCOORD_0": 6
          },
          "indices": 7,
          "material": 5,
          "mode": 4
        }
      ]
    },
    {
      "name": "defaultMaterial",
      "primitives": [
        {
          "attributes": {
            "NORMAL": 9,
            "POSITION": 8,
            "TANGENT": 10,
            "TEXCOORD_0": 11
          },
          "indices": 12,
          "material": 4,
          "mode": 4
        }
      ]
    },
    {
      "name": "defaultMaterial",
      "primitives": [
        {
          "attributes": {
            "NORMAL": 14,
            "POSITION": 13,
            "TANGENT": 15,
            "TEXCOORD_0": 16
          },
          "indices": 17,
          "material": 3,
          "mode": 4
        }
      ]
    },
    {
      "name": "defaultMaterial",
      "primitives": [
        {
          "attributes": {
            "NORMAL": 19,
            "POSITION": 18,
            "TANGENT": 20,
            "TEXCOORD_0": 21
          },
          "indices": 22,
          "material": 2,
          "mode": 4
        }
      ]
    },
    {
      "name": "defaultMaterial",
      "primitives": [
        {
          "attributes": {
            "NORMAL": 24,
            "POSITION": 23,
            "TANGENT": 25,
            "TEXCOORD_0": 26
          },
          "indices": 27,
          "material": 1,
          "mode": 4
        }
      ]
    },
    {
      "name": "defaultMaterial",
      "primitives": [
        {
          "attributes": {
            "NORMAL": 29,
            "POSITION": 28,
            "TANGENT": 30,
            "TEXCOORD_0": 31
          },
          "indices": 32,
          "material": 0,
          "mode": 4
        }
      ]
    }
  ],
  "nodes": [
    {
      "children": [
        1
      ],
      "name": "RootNode (gltf orientation matrix)",
      "rotation": [
        -0.70710678118654746,
        -0,
        -0,
        0.70710678118654757
      ]
    },
    {
      "children": [
        2
      ],
      "name": "RootNode (model correction matrix)"
    },
    {
      "children": [
        3,
        5,
        7,
        9,
        11,
        13,
        15
      ],
      "matrix": [
        1,
        0,
        0,
        0,
        0,
        -4.3711390063094768e-08,
        0.999999999999999,
        0,
        0,
        -0.999999999999999,
        -4.3711390063094768e-08,
        0,
        0,
        0,
        0,
        1
      ],
      "name": "Collada visual scene group"
    },
    {
      "children": [
        4
      ],
      "name": "p_low"
    },
    {
      "mesh": 0,
      "name": "defaultMaterial"
    },
    {
      "children": [
        6
      ],
      "name": "f_low"
    },
    {
      "mesh": 1,
      "name": "defaultMaterial"
    },
    {
      "children": [
        8
      ],
      "name": "c_low"
    },
    {
      "mesh": 2,
      "name": "defaultMaterial"
    },
    {
      "children": [
        10
      ],
      "name": "e_low"
    },
    {
      "mesh": 3,
      "name": "defaultMaterial"
    },
    {
      "children": [
        12
      ],
      "name": "d_low"
    },
    {
      "mesh": 4,
      "name": "defaultMaterial"
    },
    {
      "children": [
        14
      ],
      "name": "b_low"
    },
    {
      "mesh": 5,
      "name": "defaultMaterial"
    },
    {
      "children": [
        16
      ],
      "name": "a_low"
    },
    {
      "mesh": 6,
      "name": "defaultMaterial"
    }
  ],
  "samplers": [
    {
      "magFilter": 9729,
      "minFilter": 9987,
      "wrapS": 10497,
      "wrapT": 10497
    }
  ],
  "scene": 0,
  "scenes": [
    {
      "name": "OSG_Scene",
      "nodes": [
        0
      ]
    }
  ],
  "textures": [
    {
      "sampler": 0,
      "source": 0
    },
    {
      "sampler": 0,
      "source": 1
    },
    {
      "sampler": 0,
      "source": 2
    },
    {
      "sampler": 0,
      "source": 3
    },
    {
      "sampler": 0,
      "source": 4
    },
    {
      "sampler": 0,
      "source": 5
    },
    {
      "sampler": 0,
      "source": 6
    },
    {
      "sampler": 0,
      "source": 7
    },
    {
      "sampler": 0,
      "source": 8
    },
    {
      "sampler": 0,
      "source": 9
    },
    {
      "sampler": 0,
      "source": 10
    },
    {
      "sampler": 0,
      "source": 11
    },
    {
      "sampler": 0,
      "source": 12
    },
    {
      "sampler": 0,
      "source": 13
    },
    {
      "sampler": 0,
      "source": 14
    },
    {
      "sampler": 0,
      "source": 15
    },
    {
      "sampler": 0,
      "source": 16
    },
    {
      "sampler": 0,
      "source": 17
    },
    {
      "sampler": 0,
      "source": 18
    },
    {
      "sampler": 0,
      "source": 19
    }
  ]
}

