{
  "accessors": [
    {
      "bufferView": 2,
      "componentType": 5126,
      "count": 8895,
      "max": [
        151.03689575195312,
        347.91461181640625,
        395.3463134765625
      ],
      "min": [
        -131.38209533691406,
        -337.22369384765625,
        35.462600708007812
      ],
      "type": "VEC3"
    },
    {
      "bufferView": 2,
      "byteOffset": 106740,
      "componentType": 5126,
      "count": 8895,
      "max": [
        1,
        1,
        1
      ],
      "min": [
        -1,
        -1,
        -1
      ],
      "type": "VEC3"
    },
    {
      "bufferView": 1,
      "componentType": 5126,
      "count": 8895,
      "max": [
        0.99570000171661377,
        0.99580001831054688
      ],
      "min": [
        0.0017000000225380063,
        0.009100000374019146
      ],
      "type": "VEC2"
    },
    {
      "bufferView": 0,
      "componentType": 5125,
      "count": 31071,
      "max": [
        8894
      ],
      "min": [
        0
      ],
      "type": "SCALAR"
    },
    {
      "bufferView": 2,
      "byteOffset": 213480,
      "componentType": 5126,
      "count": 6154,
      "max": [
        151.03689575195312,
        347.91461181640625,
        395.3463134765625
      ],
      "min": [
        -131.38209533691406,
        -337.30288696289062,
        35.462600708007812
      ],
      "type": "VEC3"
    },
    {
      "bufferView": 2,
      "byteOffset": 287328,
      "componentType": 5126,
      "count": 6154,
      "max": [
        1,
        1,
        1
      ],
      "min": [
        -1,
        -1,
        -1
      ],
      "type": "VEC3"
    },
    {
      "bufferView": 1,
      "byteOffset": 71160,
      "componentType": 5126,
      "count": 6154,
      "max": [
        0.99720001220703125,
        0.98830002546310425
      ],
      "min": [
        0.013399999588727951,
        0.0076000001281499863
      ],
      "type": "VEC2"
    },
    {
      "bufferView": 0,
      "byteOffset": 124284,
      "componentType": 5125,
      "count": 19959,
      "max": [
        6153
      ],
      "min": [
        0
      ],
      "type": "SCALAR"
    },
    {
      "bufferView": 2,
      "byteOffset": 361176,
      "componentType": 5126,
      "count": 8020,
      "max": [
        143.58670043945312,
        359.710205078125,
        243.94590759277344
      ],
      "min": [
        -151.03689575195312,
        -285.3677978515625,
        -16.06879997253418
      ],
      "type": "VEC3"
    },
    {
      "bufferView": 2,
      "byteOffset": 457416,
      "componentType": 5126,
      "count": 8020,
      "max": [
        1,
        1,
        1
      ],
      "min": [
        -1,
        -1,
        -1
      ],
      "type": "VEC3"
    },
    {
      "bufferView": 1,
      "byteOffset": 120392,
      "componentType": 5126,
      "count": 8020,
      "max": [
        0.98680001497268677,
        0.83480000495910645
      ],
      "min": [
        0.0057999999262392521,
        0.065300002694129944
      ],
      "type": "VEC2"
    },
    {
      "bufferView": 0,
      "byteOffset": 204120,
      "componentType": 5125,
      "count": 22920,
      "max": [
        8019
      ],
      "min": [
        0
      ],
      "type": "SCALAR"
    },
    {
      "bufferView": 2,
      "byteOffset": 553656,
      "componentType": 5126,
      "count": 9187,
      "max": [
        143.42120361328125,
        359.72879028320312,
        347.01141357421875
      ],
      "min": [
        -118.61530303955078,
        -359.72879028320312,
        41.006999969482422
      ],
      "type": "VEC3"
    },
    {
      "bufferView": 2,
      "byteOffset": 663900,
      "componentType": 5126,
      "count": 9187,
      "max": [
        1,
        1,
        1
      ],
      "min": [
        -1,
        -1,
        -1
      ],
      "type": "VEC3"
    },
    {
      "bufferView": 1,
      "byteOffset": 184552,
      "componentType": 5126,
      "count": 9187,
      "max": [
        0.98669999837875366,
        0.99620002508163452
      ],
      "min": [
        0.002099999925121665,
        0.0035000001080334187
      ],
      "type": "VEC2"
    },
    {
      "bufferView": 0,
      "byteOffset": 295800,
      "componentType": 5125,
      "count": 28092,
      "max": [
        9186
      ],
      "min": [
        0
      ],
      "type": "SCALAR"
    },
    {
      "bufferView": 2,
      "byteOffset": 774144,
      "componentType": 5126,
      "count": 3828,
      "max": [
        143.42120361328125,
        359.72879028320312,
        347.01141357421875
      ],
      "min": [
        -118.61530303955078,
        -353.19320678710938,
        41.006999969482422
      ],
      "type": "VEC3"
    },
    {
      "bufferView": 2,
      "byteOffset": 820080,
      "componentType": 5126,
      "count": 3828,
      "max": [
        1,
        1,
        1
      ],
      "min": [
        -1,
        -1,
        -1
      ],
      "type": "VEC3"
    },
    {
      "bufferView": 1,
      "byteOffset": 258048,
      "componentType": 5126,
      "count": 3828,
      "max": [
        0.98439997434616089,
        0.97860002517700195
      ],
      "min": [
        0.0019000000320374966,
        0.034600000828504562
      ],
      "type": "VEC2"
    },
    {
      "bufferView": 0,
      "byteOffset": 408168,
      "componentType": 5125,
      "count": 10056,
      "max": [
        3827
      ],
      "min": [
        0
      ],
      "type": "SCALAR"
    }
  ],
  "asset": {
    "extras": {
      "author": "zakirakil (https://sketchfab.com/zakirakil)",
      "license": "CC-BY-4.0 (http://creativecommons.org/licenses/by/4.0/)",
      "source": "https://sketchfab.com/3d-models/kirpi-mrap-lowpoly-free-3d-model-ab989d1db61345cf9c1bbb641985d6bd",
      "title": "Kirpi Mrap  (Lowpoly + Free 3d Model)"
    },
    "generator": "Sketchfab-9.46.0",
    "version": "2.0"
  },
  "bufferViews": [
    {
      "buffer": 0,
      "byteLength": 448392,
      "byteOffset": 0,
      "name": "floatBufferViews",
      "target": 34963
    },
    {
      "buffer": 0,
      "byteLength": 288672,
      "byteOffset": 448392,
      "byteStride": 8,
      "name": "floatBufferViews",
      "target": 34962
    },
    {
      "buffer": 0,
      "byteLength": 866016,
      "byteOffset": 737064,
      "byteStride": 12,
      "name": "floatBufferViews",
      "target": 34962
    }
  ],
  "buffers": [
    {
      "byteLength": 1603080,
      "uri": "scene.bin"
    }
  ],
  "images": [
    {
      "uri": "textures/Material__25_baseColor.jpeg"
    },
    {
      "uri": "textures/Material__26_baseColor.jpeg"
    },
    {
      "uri": "textures/Bodydefault_baseColor.jpeg"
    }
  ],
  "materials": [
    {
      "doubleSided": true,
      "emissiveFactor": [
        0,
        0,
        0
      ],
      "emissiveTexture": {
        "index": 0,
        "texCoord": 0
      },
      "name": "Material__25",
      "pbrMetallicRoughness": {
        "baseColorFactor": [
          1,
          1,
          1,
          1
        ],
        "baseColorTexture": {
          "index": 0,
          "texCoord": 0
        },
        "metallicFactor": 0,
        "roughnessFactor": 1
      }
    },
    {
      "doubleSided": true,
      "emissiveFactor": [
        0,
        0,
        0
      ],
      "emissiveTexture": {
        "index": 1,
        "texCoord": 0
      },
      "name": "Material__26",
      "pbrMetallicRoughness": {
        "baseColorFactor": [
          1,
          1,
          1,
          1
        ],
        "baseColorTexture": {
          "index": 1,
          "texCoord": 0
        },
        "metallicFactor": 0,
        "roughnessFactor": 1
      }
    },
    {
      "doubleSided": true,
      "emissiveFactor": [
        0,
        0,
        0
      ],
      "emissiveTexture": {
        "index": 2,
        "texCoord": 0
      },
      "name": "Bodydefault",
      "pbrMetallicRoughness": {
        "baseColorFactor": [
          1,
          1,
          1,
          1
        ],
        "baseColorTexture": {
          "index": 2,
          "texCoord": 0
        },
        "metallicFactor": 0,
        "roughnessFactor": 1
      }
    }
  ],
  "meshes": [
    {
      "primitives": [
        {
          "attributes": {
            "NORMAL": 1,
            "POSITION": 0,
            "TEXCOORD_0": 2
          },
          "indices": 3,
          "material": 0,
          "mode": 4
        }
      ]
    },
    {
      "primitives": [
        {
          "attributes": {
            "NORMAL": 5,
            "POSITION": 4,
            "TEXCOORD_0": 6
          },
          "indices": 7,
          "material": 0,
          "mode": 4
        }
      ]
    },
    {
      "primitives": [
        {
          "attributes": {
            "NORMAL": 9,
            "POSITION": 8,
            "TEXCOORD_0": 10
          },
          "indices": 11,
          "material": 1,
          "mode": 4
        }
      ]
    },
    {
      "primitives": [
        {
          "attributes": {
            "NORMAL": 13,
            "POSITION": 12,
            "TEXCOORD_0": 14
          },
          "indices": 15,
          "material": 2,
          "mode": 4
        }
      ]
    },
    {
      "primitives": [
        {
          "attributes": {
            "NORMAL": 17,
            "POSITION": 16,
            "TEXCOORD_0": 18
          },
          "indices": 19,
          "material": 2,
          "mode": 4
        }
      ]
    }
  ],
  "nodes": [
    {
      "children": [
        1
      ],
      "name": "RootNode (gltf orientation matrix)",
      "rotation": [
        -0.70710678118654746,
        -0,
        -0,
        0.70710678118654757
      ]
    },
    {
      "children": [
        2
      ],
      "name": "RootNode (model correction matrix)"
    },
    {
      "children": [
        3,
        4,
        5,
        6,
        7
      ],
      "name": "KirpiMrap2.obj.cleaner.materialmerger.gles"
    },
    {
      "mesh": 0,
      "name": ""
    },
    {
      "mesh": 1,
      "name": ""
    },
    {
      "mesh": 2,
      "name": ""
    },
    {
      "mesh": 3,
      "name": ""
    },
    {
      "mesh": 4,
      "name": ""
    }
  ],
  "samplers": [
    {
      "magFilter": 9729,
      "minFilter": 9987,
      "wrapS": 10497,
      "wrapT": 10497
    }
  ],
  "scene": 0,
  "scenes": [
    {
      "name": "OSG_Scene",
      "nodes": [
        0
      ]
    }
  ],
  "textures": [
    {
      "sampler": 0,
      "source": 0
    },
    {
      "sampler": 0,
      "source": 1
    },
    {
      "sampler": 0,
      "source": 2
    }
  ]
}

