{
  "accessors": [
    {
      "bufferView": 2,
      "componentType": 5126,
      "count": 7396,
      "max": [
        2.5302319526672363,
        4.915407657623291,
        2.8197493553161621
      ],
      "min": [
        -2.5302319526672363,
        -4.916172981262207,
        -2.7574400901794434
      ],
      "type": "VEC3"
    },
    {
      "bufferView": 2,
      "byteOffset": 88752,
      "componentType": 5126,
      "count": 7396,
      "max": [
        1,
        1,
        1
      ],
      "min": [
        -1,
        -1,
        -1
      ],
      "type": "VEC3"
    },
    {
      "bufferView": 3,
      "componentType": 5126,
      "count": 7396,
      "max": [
        1,
        1,
        1,
        1
      ],
      "min": [
        -1,
        -1,
        -0.9999995231628418,
        -1
      ],
      "type": "VEC4"
    },
    {
      "bufferView": 1,
      "componentType": 5126,
      "count": 7396,
      "max": [
        0.9904639720916748,
        0.9931519627571106
      ],
      "min": [
        0.00424213707447052,
        0.00424213707447052
      ],
      "type": "VEC2"
    },
    {
      "bufferView": 0,
      "componentType": 5125,
      "count": 28527,
      "max": [
        7395
      ],
      "min": [
        0
      ],
      "type": "SCALAR"
    },
    {
      "bufferView": 2,
      "byteOffset": 177504,
      "componentType": 5126,
      "count": 2029,
      "max": [
        3.2375004291534424,
        2.6509139537811279,
        1.4072728157043457
      ],
      "min": [
        0.17373204231262207,
        -1.5295084714889526,
        -1.4594746828079224
      ],
      "type": "VEC3"
    },
    {
      "bufferView": 2,
      "byteOffset": 201852,
      "componentType": 5126,
      "count": 2029,
      "max": [
        1,
        0.9996497631072998,
        0.99967992305755615
      ],
      "min": [
        -1,
        -0.9996790885925293,
        -0.99960577487945557
      ],
      "type": "VEC3"
    },
    {
      "bufferView": 3,
      "byteOffset": 118336,
      "componentType": 5126,
      "count": 2029,
      "max": [
        1,
        0.99968981742858887,
        0.99846929311752319,
        1
      ],
      "min": [
        -0.99993056058883667,
        -0.99977320432662964,
        -0.99779623746871948,
        1
      ],
      "type": "VEC4"
    },
    {
      "bufferView": 1,
      "byteOffset": 59168,
      "componentType": 5126,
      "count": 2029,
      "max": [
        0.9957578182220459,
        0.9939461350440979
      ],
      "min": [
        0.00424213707447052,
        0.00424213707447052
      ],
      "type": "VEC2"
    },
    {
      "bufferView": 0,
      "byteOffset": 114108,
      "componentType": 5125,
      "count": 8574,
      "max": [
        2028
      ],
      "min": [
        0
      ],
      "type": "SCALAR"
    },
    {
      "bufferView": 2,
      "byteOffset": 226200,
      "componentType": 5126,
      "count": 102,
      "max": [
        0.26088881492614746,
        0.66715496778488159,
        0.66715532541275024
      ],
      "min": [
        -0.36904644966125488,
        -0.66715508699417114,
        -0.66715508699417114
      ],
      "type": "VEC3"
    },
    {
      "bufferView": 2,
      "byteOffset": 227424,
      "componentType": 5126,
      "count": 102,
      "max": [
        0.3939119279384613,
        1,
        1
      ],
      "min": [
        -0.85053884983062744,
        -1,
        -1
      ],
      "type": "VEC3"
    },
    {
      "bufferView": 3,
      "byteOffset": 150800,
      "componentType": 5126,
      "count": 102,
      "max": [
        -0.41377133131027222,
        0.84804898500442505,
        0.70332014560699463,
        1
      ],
      "min": [
        -0.99983882904052734,
        -0.86454951763153076,
        -0.84625577926635742,
        1
      ],
      "type": "VEC4"
    },
    {
      "bufferView": 1,
      "byteOffset": 75400,
      "componentType": 5126,
      "count": 102,
      "max": [
        0.6933060884475708,
        0.51055318117141724
      ],
      "min": [
        0.63056880235671997,
        0.27632972598075867
      ],
      "type": "VEC2"
    },
    {
      "bufferView": 0,
      "byteOffset": 148404,
      "componentType": 5125,
      "count": 480,
      "max": [
        101
      ],
      "min": [
        0
      ],
      "type": "SCALAR"
    },
    {
      "bufferView": 2,
      "byteOffset": 228648,
      "componentType": 5126,
      "count": 2029,
      "max": [
        -0.17373204231262207,
        2.6158502101898193,
        1.4194545745849609
      ],
      "min": [
        -3.2375006675720215,
        -1.4467790126800537,
        -1.5128738880157471
      ],
      "type": "VEC3"
    },
    {
      "bufferView": 2,
      "byteOffset": 252996,
      "componentType": 5126,
      "count": 2029,
      "max": [
        1,
        0.99472552537918091,
        0.99975526332855225
      ],
      "min": [
        -1,
        -0.99938499927520752,
        -0.99949812889099121
      ],
      "type": "VEC3"
    },
    {
      "bufferView": 3,
      "byteOffset": 152432,
      "componentType": 5126,
      "count": 2029,
      "max": [
        0.99993085861206055,
        0.99941110610961914,
        0.99653393030166626,
        -1
      ],
      "min": [
        -1,
        -0.9999573826789856,
        -0.99405080080032349,
        -1
      ],
      "type": "VEC4"
    },
    {
      "bufferView": 1,
      "byteOffset": 76216,
      "componentType": 5126,
      "count": 2029,
      "max": [
        0.9957578182220459,
        0.9939461350440979
      ],
      "min": [
        0.00424213707447052,
        0.00424213707447052
      ],
      "type": "VEC2"
    },
    {
      "bufferView": 0,
      "byteOffset": 150324,
      "componentType": 5125,
      "count": 8574,
      "max": [
        2028
      ],
      "min": [
        0
      ],
      "type": "SCALAR"
    },
    {
      "bufferView": 2,
      "byteOffset": 277344,
      "componentType": 5126,
      "count": 102,
      "max": [
        0.36904644966125488,
        0.66715496778488159,
        0.66715532541275024
      ],
      "min": [
        -0.26088881492614746,
        -0.66715508699417114,
        -0.66715508699417114
      ],
      "type": "VEC3"
    },
    {
      "bufferView": 2,
      "byteOffset": 278568,
      "componentType": 5126,
      "count": 102,
      "max": [
        0.85053884983062744,
        1,
        1
      ],
      "min": [
        -0.3939119279384613,
        -1,
        -1
      ],
      "type": "VEC3"
    },
    {
      "bufferView": 3,
      "byteOffset": 184896,
      "componentType": 5126,
      "count": 102,
      "max": [
        0.99983882904052734,
        0.8480488657951355,
        0.70914030075073242,
        -1
      ],
      "min": [
        0.41377127170562744,
        -0.86466336250305176,
        -0.84625577926635742,
        -1
      ],
      "type": "VEC4"
    },
    {
      "bufferView": 1,
      "byteOffset": 92448,
      "componentType": 5126,
      "count": 102,
      "max": [
        0.6933060884475708,
        0.51055318117141724
      ],
      "min": [
        0.63056880235671997,
        0.27632972598075867
      ],
      "type": "VEC2"
    },
    {
      "bufferView": 0,
      "byteOffset": 184620,
      "componentType": 5125,
      "count": 480,
      "max": [
        101
      ],
      "min": [
        0
      ],
      "type": "SCALAR"
    }
  ],
  "asset": {
    "extras": {
      "author": "tnnv (https://sketchfab.com/tnnv)",
      "license": "CC-BY-4.0 (http://creativecommons.org/licenses/by/4.0/)",
      "source": "https://sketchfab.com/3d-models/warhammer-40k-space-marine-stormtalon-gunship-f3fb70e7628048b99b635d4e4cd13e7b",
      "title": "Warhammer 40k - Space Marine Stormtalon Gunship"
    },
    "generator": "Sketchfab-9.75.0",
    "version": "2.0"
  },
  "bufferViews": [
    {
      "buffer": 0,
      "byteLength": 186540,
      "byteOffset": 0,
      "name": "floatBufferViews",
      "target": 34963
    },
    {
      "buffer": 0,
      "byteLength": 93264,
      "byteOffset": 186540,
      "byteStride": 8,
      "name": "floatBufferViews",
      "target": 34962
    },
    {
      "buffer": 0,
      "byteLength": 279792,
      "byteOffset": 279804,
      "byteStride": 12,
      "name": "floatBufferViews",
      "target": 34962
    },
    {
      "buffer": 0,
      "byteLength": 186528,
      "byteOffset": 559596,
      "byteStride": 16,
      "name": "floatBufferViews",
      "target": 34962
    }
  ],
  "buffers": [
    {
      "byteLength": 746124,
      "uri": "scene.bin"
    }
  ],
  "images": [
    {
      "uri": "textures/M_StormTalon_baseColor.png"
    },
    {
      "uri": "textures/M_StormTalon_metallicRoughness.png"
    },
    {
      "uri": "textures/M_StormTalon_emissive.png"
    },
    {
      "uri": "textures/M_StormTalon_normal.png"
    }
  ],
  "materials": [
    {
      "doubleSided": false,
      "emissiveFactor": [
        1,
        1,
        1
      ],
      "emissiveTexture": {
        "index": 2,
        "texCoord": 0
      },
      "name": "M_StormTalon",
      "normalTexture": {
        "index": 3,
        "scale": 1,
        "texCoord": 0
      },
      "occlusionTexture": {
        "index": 1,
        "strength": 1,
        "texCoord": 0
      },
      "pbrMetallicRoughness": {
        "baseColorFactor": [
          1,
          1,
          1,
          1
        ],
        "baseColorTexture": {
          "index": 0,
          "texCoord": 0
        },
        "metallicFactor": 1,
        "metallicRoughnessTexture": {
          "index": 1,
          "texCoord": 0
        },
        "roughnessFactor": 1
      }
    }
  ],
  "meshes": [
    {
      "name": "StormTalonGame_M_StormTalon_0",
      "primitives": [
        {
          "attributes": {
            "NORMAL": 1,
            "POSITION": 0,
            "TANGENT": 2,
            "TEXCOORD_0": 3
          },
          "indices": 4,
          "material": 0,
          "mode": 4
        }
      ]
    },
    {
      "name": "StormTalonGame.001_M_StormTalon_0",
      "primitives": [
        {
          "attributes": {
            "NORMAL": 6,
            "POSITION": 5,
            "TANGENT": 7,
            "TEXCOORD_0": 8
          },
          "indices": 9,
          "material": 0,
          "mode": 4
        }
      ]
    },
    {
      "name": "StormTalonGame.002_M_StormTalon_0",
      "primitives": [
        {
          "attributes": {
            "NORMAL": 11,
            "POSITION": 10,
            "TANGENT": 12,
            "TEXCOORD_0": 13
          },
          "indices": 14,
          "material": 0,
          "mode": 4
        }
      ]
    },
    {
      "name": "StormTalonGame.003_M_StormTalon_0",
      "primitives": [
        {
          "attributes": {
            "NORMAL": 16,
            "POSITION": 15,
            "TANGENT": 17,
            "TEXCOORD_0": 18
          },
          "indices": 19,
          "material": 0,
          "mode": 4
        }
      ]
    },
    {
      "name": "StormTalonGame.004_M_StormTalon_0",
      "primitives": [
        {
          "attributes": {
            "NORMAL": 21,
            "POSITION": 20,
            "TANGENT": 22,
            "TEXCOORD_0": 23
          },
          "indices": 24,
          "material": 0,
          "mode": 4
        }
      ]
    }
  ],
  "nodes": [
    {
      "children": [
        1
      ],
      "name": "RootNode (gltf orientation matrix)",
      "rotation": [
        -0.70710678118654746,
        -0,
        -0,
        0.70710678118654757
      ]
    },
    {
      "children": [
        2
      ],
      "name": "RootNode (model correction matrix)"
    },
    {
      "children": [
        3
      ],
      "matrix": [
        1,
        0,
        0,
        0,
        0,
        0,
        1,
        0,
        0,
        -1,
        0,
        0,
        0,
        0,
        0,
        1
      ],
      "name": "dff8717b7bdd4b58bcf1406e6c8e1b03.fbx"
    },
    {
      "children": [
        4,
        6,
        8,
        10,
        12
      ],
      "name": "RootNode"
    },
    {
      "children": [
        5
      ],
      "matrix": [
        100,
        0,
        0,
        0,
        0,
        -1.6292067939183141e-05,
        -99.999999999998678,
        0,
        0,
        99.999999999998678,
        -1.6292067939183141e-05,
        0,
        0,
        276.542724609375,
        0,
        1
      ],
      "name": "StormTalonGame"
    },
    {
      "mesh": 0,
      "name": "StormTalonGame_M_StormTalon_0"
    },
    {
      "children": [
        7
      ],
      "matrix": [
        100,
        0,
        0,
        0,
        0,
        -1.6292067939183141e-05,
        -99.999999999998678,
        0,
        0,
        99.999999999998678,
        -1.6292067939183141e-05,
        0,
        132.21279907226562,
        331.8956298828125,
        8.2272243499755859,
        1
      ],
      "name": "StormTalonGame.001"
    },
    {
      "mesh": 1,
      "name": "StormTalonGame.001_M_StormTalon_0"
    },
    {
      "children": [
        9
      ],
      "matrix": [
        100,
        0,
        0,
        0,
        0,
        -1.6292067939183141e-05,
        -99.999999999998678,
        0,
        0,
        99.999999999998678,
        -1.6292067939183141e-05,
        0,
        132.21279907226562,
        331.8956298828125,
        8.2272243499755859,
        1
      ],
      "name": "StormTalonGame.002"
    },
    {
      "mesh": 2,
      "name": "StormTalonGame.002_M_StormTalon_0"
    },
    {
      "children": [
        11
      ],
      "matrix": [
        100,
        0,
        0,
        0,
        -0,
        -1.6292067939183141e-05,
        -99.999999999998678,
        0,
        0,
        99.999999999998678,
        -1.6292067939183141e-05,
        0,
        -132.21279907226562,
        331.8956298828125,
        8.2272243499755859,
        1
      ],
      "name": "StormTalonGame.003"
    },
    {
      "mesh": 3,
      "name": "StormTalonGame.003_M_StormTalon_0"
    },
    {
      "children": [
        13
      ],
      "matrix": [
        100,
        0,
        0,
        0,
        -0,
        -1.6292067939183141e-05,
        -99.999999999998678,
        0,
        0,
        99.999999999998678,
        -1.6292067939183141e-05,
        0,
        -132.21279907226562,
        331.8956298828125,
        8.2272243499755859,
        1
      ],
      "name": "StormTalonGame.004"
    },
    {
      "mesh": 4,
      "name": "StormTalonGame.004_M_StormTalon_0"
    }
  ],
  "samplers": [
    {
      "magFilter": 9729,
      "minFilter": 9987,
      "wrapS": 10497,
      "wrapT": 10497
    }
  ],
  "scene": 0,
  "scenes": [
    {
      "name": "OSG_Scene",
      "nodes": [
        0
      ]
    }
  ],
  "textures": [
    {
      "sampler": 0,
      "source": 0
    },
    {
      "sampler": 0,
      "source": 1
    },
    {
      "sampler": 0,
      "source": 2
    },
    {
      "sampler": 0,
      "source": 3
    }
  ]
}

